<?xml version="1.0" encoding="utf-8"?>
<svg version="1.1" id="instagram" xmlns="http://www.w3.org/2000/svg" viewBox="0 0 24 24" aria-labelledby="title" role="img">
	<title id="title">Instagram</title>
	<rect x="2.4" y="2.1" style="fill:#fff;" width="19.4" height="19.4"/>
	<radialGradient id="id1" cx="-1789.2566" cy="1361.6644" r="11.9977" gradientTransform="matrix(0 -1.982 1.8439 0 -2504.3979 -3520.4534)" gradientUnits="userSpaceOnUse">
		<stop offset="0" style="stop-color:#ffdd55"/>
		<stop offset="0.1" style="stop-color:#ffdd55"/>
		<stop offset="0.5" style="stop-color:#ff543e"/>
		<stop offset="1" style="stop-color:#c837ab"/>
	</radialGradient>
	<path style="fill:url(#id1);" d="M12,0C7,0,5.5,0,5.2,0c-1,0.1-1.7,0.2-2.4,0.6c-0.5,0.3-1,0.6-1.4,1c-0.7,0.8-1.1,1.8-1.3,3
		C0,5.1,0,5.2,0,8.1c0,1,0,2.2,0,3.9c0,5,0,6.5,0,6.8c0.1,1,0.2,1.6,0.6,2.3c0.6,1.3,1.8,2.3,3.3,2.7c0.5,0.1,1,0.2,1.7,0.2
		c0.3,0,3.3,0,6.4,0s6.1,0,6.4,0c0.8,0,1.3-0.1,1.8-0.2c1.4-0.4,2.6-1.3,3.3-2.7c0.3-0.7,0.5-1.3,0.6-2.3c0-0.2,0-3.5,0-6.8
		s0-6.6,0-6.8c-0.1-1-0.2-1.6-0.6-2.3c-0.3-0.6-0.6-1-1-1.4c-0.8-0.8-1.8-1.2-2.9-1.4C18.9,0,18.8,0,15.9,0H12z"/>
	<radialGradient id="id2" cx="161.0354" cy="129.4708" r="11.9977" gradientTransform="matrix(0.1739 0.8687 -3.5818 0.7172 431.7017 -231.0297)" gradientUnits="userSpaceOnUse">
		<stop  offset="0" style="stop-color:#3771c8"/>
		<stop  offset="0.128" style="stop-color:#3771c8"/>
		<stop  offset="1" style="stop-color:#6600ff;stop-opacity:0"/>
	</radialGradient>
	<path style="fill:url(#id2);" d="M12,0C7,0,5.5,0,5.2,0
		c-1,0.1-1.7,0.2-2.4,0.6c-0.5,0.3-1,0.6-1.4,1c-0.7,0.8-1.1,1.8-1.3,3C0,5.1,0,5.2,0,8.1c0,1,0,2.2,0,3.9c0,5,0,6.5,0,6.8
		c0.1,1,0.2,1.6,0.6,2.3c0.6,1.3,1.8,2.3,3.3,2.7c0.5,0.1,1,0.2,1.7,0.2c0.3,0,3.3,0,6.4,0s6.1,0,6.4,0c0.8,0,1.3-0.1,1.8-0.2
		c1.4-0.4,2.6-1.3,3.3-2.7c0.3-0.7,0.5-1.3,0.6-2.3c0-0.2,0-3.5,0-6.8s0-6.6,0-6.8c-0.1-1-0.2-1.6-0.6-2.3c-0.3-0.6-0.6-1-1-1.4
		c-0.8-0.8-1.8-1.2-2.9-1.4C18.9,0,18.8,0,15.9,0H12z"/>
	<path style="fill:#fff;" d="M12,3.1c-2.4,0-2.7,0-3.7,0.1c-0.9,0-1.6,0.2-2.2,0.4S5,4.1,4.5,4.6s-0.8,1-1,1.6
		C3.4,6.8,3.2,7.4,3.2,8.3S3.1,9.5,3.1,12s0,2.7,0.1,3.7c0,0.9,0.2,1.6,0.4,2.2s0.5,1.1,1,1.6s1,0.8,1.6,1s1.2,0.4,2.2,0.4
		c0.9,0,1.2,0.1,3.7,0.1c2.4,0,2.7,0,3.7-0.1c0.9,0,1.6-0.2,2.2-0.4c0.6-0.2,1.1-0.5,1.6-1s0.8-1,1-1.6s0.4-1.2,0.4-2.2
		c0-0.9,0.1-1.2,0.1-3.7s0-2.7-0.1-3.7c0-0.9-0.2-1.6-0.4-2.2c-0.2-0.6-0.5-1.1-1-1.6s-1-0.8-1.6-1s-1.2-0.4-2.2-0.4
		C14.7,3.1,14.4,3.1,12,3.1L12,3.1z M11.2,4.7c0.2,0,0.5,0,0.8,0c2.4,0,2.6,0,3.6,0.1c0.9,0,1.3,0.2,1.6,0.3c0.4,0.2,0.7,0.4,1,0.7
		c0.3,0.3,0.5,0.6,0.7,1c0.1,0.3,0.3,0.8,0.3,1.6c0,0.9,0.1,1.2,0.1,3.6s0,2.6-0.1,3.6c0,0.9-0.2,1.3-0.3,1.6c-0.2,0.4-0.4,0.7-0.7,1
		c-0.3,0.3-0.6,0.5-1,0.7c-0.3,0.1-0.8,0.3-1.6,0.3c-0.9,0-1.2,0.1-3.6,0.1s-2.6,0-3.6-0.1c-0.9,0-1.3-0.2-1.6-0.3
		c-0.4-0.2-0.7-0.4-1-0.7c-0.3-0.3-0.5-0.6-0.7-1c-0.1-0.3-0.3-0.8-0.3-1.6c0-0.9-0.1-1.2-0.1-3.6s0-2.6,0.1-3.6
		c0-0.9,0.2-1.3,0.3-1.6c0.2-0.4,0.4-0.7,0.7-1c0.3-0.3,0.6-0.5,1-0.7C7.1,5,7.6,4.8,8.4,4.8C9.2,4.7,9.6,4.7,11.2,4.7L11.2,4.7z
		 M16.7,6.2c-0.6,0-1.1,0.5-1.1,1.1s0.5,1.1,1.1,1.1s1.1-0.5,1.1-1.1S17.3,6.2,16.7,6.2L16.7,6.2z M12,7.4c-2.5,0-4.5,2-4.5,4.5
		s2,4.5,4.5,4.5s4.5-2,4.5-4.5S14.5,7.4,12,7.4L12,7.4z M12,9c1.6,0,3,1.3,3,3c0,1.6-1.3,3-3,3c-1.6,0-3-1.3-3-3C9,10.4,10.4,9,12,9z
		"/>
</svg>