<?xml version="1.0" encoding="utf-8"?>
<svg version="1.1" id="youtube" xmlns="http://www.w3.org/2000/svg" viewBox="0 0 24 24" aria-labelledby="title" role="img">
	<title id="title">YouTube</title>
	<rect x="2.4" y="5" width="19.3" height="14.6" fill="#fff"/>
	<path d="M10,9.3l5.3,2.7L10,14.7V9.3z M24,5v14c0,2.8-2.2,5-5,5H5c-2.8,0-5-2.2-5-5V5c0-2.8,2.2-5,5-5h14
	C21.8,0,24,2.2,24,5z M20,12c0-4.1-0.3-5.7-2.9-5.9C14.7,6,9.3,6,6.9,6.1C4.3,6.3,4,7.9,4,12c0,4.1,0.3,5.7,2.9,5.9
	c2.4,0.2,7.8,0.2,10.2,0C19.7,17.7,20,16.1,20,12z" fill="#ff0000"/>
</svg>